<svg width="1080" height="1080" viewBox="0 0 1080 1080" fill="none" xmlns="http://www.w3.org/2000/svg">
<path d="M379.103 13.0899V690H237.924V146.789H234.184L78.9808 244.025V119.675L246.338 13.0899H379.103ZM731.881 699.35C562.654 699.35 459.808 573.13 459.808 351.545C459.808 129.96 562.654 3.74036 731.881 3.74036C901.109 3.74036 1003.95 130.895 1003.95 351.545C1003.95 574.065 901.109 699.35 731.881 699.35ZM731.881 583.415C810.418 583.415 860.905 507.683 859.97 351.545C859.97 197.277 810.418 118.74 731.881 118.74C653.345 118.74 603.792 197.277 603.792 351.545C602.857 507.683 653.345 583.415 731.881 583.415ZM69.4051 710.453H120.323L157.276 800.902H159.21L196.163 710.453H247.081V866H207.12V774.477H205.831L170.382 864.926H145.889L110.655 773.832H109.366V866H69.4051V710.453ZM304.556 710.453V866H263.736V710.453H304.556ZM455.058 710.453V866H420.898L363.105 781.996H362.031V866H321.211V710.453H356.015L412.949 794.027H414.238V710.453H455.058ZM564.311 710.453H605.131V810.355C605.131 845.59 578.275 867.934 538.314 867.934C498.354 867.934 471.713 845.59 471.713 810.355V710.453H512.533V806.703C512.533 821.742 523.275 832.484 538.314 832.484C553.568 832.484 564.311 821.742 564.311 806.703V710.453ZM617.274 743.539V710.453H751.336V743.539H704.5V866H664.11V743.539H617.274ZM763.479 866V710.453H874.554V743.539H804.3V771.684H868.753V804.77H804.3V832.914H874.339V866H763.479ZM975.427 758.578C974.568 748.051 967.693 742.035 953.728 742.035C940.193 742.035 934.177 747.191 933.962 754.496C933.747 762.445 941.052 766.957 955.446 769.965L968.337 772.973C1001.85 780.062 1016.68 796.391 1016.89 820.238C1016.68 850.746 993.259 867.934 953.943 867.934C913.767 867.934 887.771 850.316 887.341 812.074H926.443C927.087 826.469 937.185 834.203 953.298 834.203C967.263 834.203 974.782 828.402 974.997 820.238C974.782 812.719 968.552 808.422 951.15 804.555L935.466 801.117C908.181 795.102 891.423 781.566 891.423 757.504C891.208 728.07 917.204 708.305 953.728 708.305C991.111 708.305 1014.53 728.285 1014.74 758.578H975.427ZM67.4417 1038V885.826H132.179C166.228 885.826 188.508 907.265 188.508 939.213C188.508 971.792 165.598 992.18 130.917 992.18H107.377V1038H67.4417ZM107.377 961.072H122.93C138.064 961.072 146.681 952.665 146.681 939.213C146.681 925.972 138.064 917.774 122.93 917.774H107.377V961.072ZM199.967 1038V885.826H239.902V1005.63H301.907V1038H199.967ZM353.091 1038H309.793L360.447 885.826H414.885L465.329 1038H422.242L413.204 1008.15H362.129L353.091 1038ZM371.377 977.887H403.955L388.192 926.812H386.931L371.377 977.887ZM607.103 885.826V1038H573.684L517.144 955.818H516.093V1038H476.158V885.826H510.208L565.907 967.588H567.168V885.826H607.103ZM754.341 885.826V1038H720.922L664.382 955.818H663.332V1038H623.397V885.826H657.446L713.145 967.588H714.406V885.826H754.341ZM770.635 1038V885.826H879.3V918.195H810.57V945.729H873.625V978.097H810.57V1005.63H879.09V1038H770.635ZM896.014 1038V885.826H960.751C994.801 885.826 1017.08 905.163 1017.08 937.322C1017.08 958.34 1007.41 973.263 991.018 981.04L1022.12 1038H978.617L951.713 987.346H935.949V1038H896.014ZM935.949 956.028H951.503C966.636 956.028 975.254 950.563 975.254 937.322C975.254 923.87 966.636 917.774 951.503 917.774H935.949V956.028Z" fill="black"/>
</svg>
